# xmcd
#
# Track frame offsets:
#	150
#	20400
#	34822
#	49867
#	65630
#	80752
#	95725
#
# Disc length: 1443 seconds
#
# Revision: 1
# Processed by: cddbd v1.5.1PL0 Copyright (c) Steve Scherf et al.
# Submitted via: CDex 1.50Beta5
#
DISCID=5d05a107
DTITLE=古賀政男 - 永遠の古賀メロディー・ベスト
DYEAR=1900
DGENRE=Pop
TTITLE0=ディック・ミネ/影を慕いて
TTITLE1=藤山一郎/東京ラプソディー
TTITLE2=楠木繁夫/緑の地平線
TTITLE3=藤山一郎/男の純情
TTITLE4=ディック・ミネ/愛の小窓
TTITLE5=藤山一郎/青い背広で
TTITLE6=楠木繁夫/人生劇場
EXTD=
EXTT0=
EXTT1=
EXTT2=
EXTT3=
EXTT4=
EXTT5=
EXTT6=
PLAYORDER=
